<?xml version="1.0" standalone="no"?><!DOCTYPE svg PUBLIC "-//W3C//DTD SVG 1.1//EN" "http://www.w3.org/Graphics/SVG/1.1/DTD/svg11.dtd"><svg t="1733045399111" class="icon" viewBox="0 0 1024 1024" version="1.1" xmlns="http://www.w3.org/2000/svg" p-id="2280" xmlns:xlink="http://www.w3.org/1999/xlink" width="200" height="200"><path d="M512 585.602322c-69.607334 0-135.048789-27.106358-184.26777-76.326363s-76.326363-114.660436-76.326363-184.26777 27.106358-135.048789 76.326363-184.26777 114.660436-76.326363 184.26777-76.326363c69.607334 0 135.048789 27.106358 184.26777 76.326363s76.326363 114.660436 76.326363 184.26777-27.106358 135.047766-76.326363 184.26777S581.607334 585.602322 512 585.602322zM512 133.487224c-105.6052 0-191.520965 85.915765-191.520965 191.520965s85.915765 191.520965 191.520965 191.520965c105.6052 0 191.520965-85.915765 191.520965-191.520965S617.6052 133.487224 512 133.487224z" p-id="2281"></path><path d="M888.761899 962.365244c-19.074428 0-34.536584-15.462157-34.536584-34.536584 0-188.703803-153.521512-342.226339-342.226339-342.226339S169.773661 739.123834 169.773661 927.82866c0 19.074428-15.462157 34.536584-34.536584 34.536584s-34.536584-15.462157-34.536584-34.536584c0-55.509245 10.879792-109.37813 32.336476-160.106488 20.717857-48.981574 50.369178-92.964298 88.131223-130.72532 37.761022-37.762045 81.743746-67.414389 130.72532-88.131223 50.729381-21.456684 104.597243-32.336476 160.106488-32.336476 55.509245 0 109.37813 10.879792 160.106488 32.336476 48.981574 20.716834 92.964298 50.369178 130.726344 88.131223 37.761022 37.761022 67.412342 81.743746 88.1302 130.72532 21.456684 50.728358 32.336476 104.597243 32.336476 160.106488C923.298484 946.902064 907.836327 962.365244 888.761899 962.365244z" p-id="2282"></path></svg>