<?xml version="1.0" standalone="no"?><!DOCTYPE svg PUBLIC "-//W3C//DTD SVG 1.1//EN" "http://www.w3.org/Graphics/SVG/1.1/DTD/svg11.dtd"><svg t="1733045373783" class="icon" viewBox="0 0 1024 1024" version="1.1" xmlns="http://www.w3.org/2000/svg" p-id="2132" xmlns:xlink="http://www.w3.org/1999/xlink" width="200" height="200"><path d="M511.7952 153.7536a31.8976 31.8976 0 0 1 5.7856 63.3344l-5.7856 0.4608h-224.256a95.744 95.744 0 0 0-95.2832 86.528l-0.4608 9.216v446.5664c0 49.3056 37.4784 90.5216 86.528 95.232l9.216 0.512h446.6176c49.2544 0 90.4704-37.4784 95.232-86.528l0.4608-9.216v-223.0784a31.8976 31.8976 0 0 1 63.3344-5.7856l0.4608 5.7856v223.0784a159.488 159.488 0 0 1-149.0432 159.232l-10.4448 0.256H287.5392a159.488 159.488 0 0 1-159.232-148.992L128 759.808V313.2416a159.488 159.488 0 0 1 149.1456-159.232L287.5392 153.6h224.2048l0.0512 0.1024z" fill="#999999" p-id="2133"></path><path d="M839.2192 163.072a31.8976 31.8976 0 0 1 48.7936 40.704l-3.584 4.5056-350.9248 350.8736a31.8464 31.8464 0 0 1-48.8448-40.704l3.6864-4.4544 350.8736-350.9248z" fill="#999999" p-id="2134"></path></svg>