<?xml version="1.0" standalone="no"?>
<svg xmlns="http://www.w3.org/2000/svg"
     width="24"
     height="24">
    <rect
        width="24"
        height="24"
        opacity="0"></rect>
    <g>
        <path
            d="M19.1 5.26Q18.96 5.11 18.76 5.11Q18.55 5.11 18.41 5.24Q18.26 5.38 18.26 5.59L18.26 7.39L7.68 7.39Q6.12 7.39 4.8 8.16Q3.48 8.93 2.7 10.26Q1.92 11.59 1.92 13.15Q1.92 14.71 2.7 16.03Q3.48 17.35 4.8 18.12Q6.12 18.89 7.68 18.89L19.73 18.89Q20.04 18.89 20.27 18.67Q20.5 18.46 20.5 18.14Q20.5 17.83 20.27 17.62Q20.04 17.4 19.73 17.4L7.68 17.4Q6.53 17.4 5.56 16.82Q4.58 16.25 4.01 15.28Q3.43 14.3 3.43 13.15Q3.43 12 4.01 11.02Q4.58 10.03 5.56 9.46Q6.53 8.88 7.68 8.88L18.5 8.88L21.55 8.88Q21.77 8.88 21.91 8.74Q22.06 8.59 22.06 8.39Q22.06 8.18 21.91 8.04L19.1 5.26Z"
            fill="rgba(0,0,0,0.9019607843137255)"></path>
    </g>
</svg>