<?xml version="1.0" standalone="no"?>
<svg xmlns="http://www.w3.org/2000/svg"
     width="24"
     height="24">
    <rect
        width="24"
        height="24"
        opacity="0"></rect>
    <g>
        <path
            d="M5.74 7.39L5.74 5.59Q5.74 5.38 5.59 5.24Q5.45 5.11 5.24 5.1Q5.04 5.09 4.87 5.26L2.09 8.04Q1.92 8.18 1.93 8.39Q1.94 8.59 2.08 8.74Q2.21 8.88 2.42 8.88L5.47 8.88L16.32 8.88Q17.47 8.88 18.44 9.46Q19.42 10.03 19.99 11Q20.57 11.98 20.57 13.13Q20.57 14.28 19.99 15.25Q19.42 16.22 18.44 16.8Q17.47 17.38 16.32 17.38L4.25 17.38Q3.94 17.38 3.72 17.59Q3.5 17.81 3.5 18.12Q3.5 18.43 3.72 18.66Q3.94 18.89 4.25 18.89L16.32 18.89Q17.88 18.89 19.2 18.11Q20.52 17.33 21.29 16.01Q22.06 14.69 22.06 13.13Q22.06 11.57 21.29 10.25Q20.52 8.93 19.2 8.16Q17.88 7.39 16.32 7.39Z"
            fill="rgba(0,0,0,0.9019607843137255)"></path>
    </g>
</svg>