<?xml version="1.0" standalone="no"?><!DOCTYPE svg PUBLIC "-//W3C//DTD SVG 1.1//EN" "http://www.w3.org/Graphics/SVG/1.1/DTD/svg11.dtd"><svg t="1717590178891" class="icon" viewBox="0 0 1024 1024" version="1.1" xmlns="http://www.w3.org/2000/svg" p-id="2515" xmlns:xlink="http://www.w3.org/1999/xlink" width="200" height="200"><path d="M546 388.6L436.7 668.3l48.1 18.8 109.3-279.7-48.1-18.8z m102.4 38l104.7 113.6-105 118.8 38.7 34.2 136-153.6-136.4-148-38 35z m-251.8 234L289.3 549.8l108.2-123.6-38.9-34-139.5 159.3 140.4 145 37.1-35.9zM254.2 150.9h516.5c57.1 0 103.3 46.3 103.3 103.3v516.5c0 57.1-46.3 103.3-103.3 103.3H254.2c-57.1 0-103.3-46.3-103.3-103.3V254.2c0-57.1 46.2-103.3 103.3-103.3z" fill="#666666" p-id="2516"></path></svg>