<?xml version="1.0" standalone="no"?><!DOCTYPE svg PUBLIC "-//W3C//DTD SVG 1.1//EN" "http://www.w3.org/Graphics/SVG/1.1/DTD/svg11.dtd"><svg t="1717834531917" class="icon" viewBox="0 0 1024 1024" version="1.1" xmlns="http://www.w3.org/2000/svg" p-id="3201" data-spm-anchor-id="a313x.search_index.0.i0.23243a81ucp8eC" xmlns:xlink="http://www.w3.org/1999/xlink" width="200" height="200"><path d="M223.8464 491.52h600.6784v263.9872H223.8464z" fill="#1296db" p-id="3202"></path><path d="M828.0064 758.9888H220.5696V488.2432h607.6416v270.7456zM227.328 752.2304h593.92V495.0016H227.328v257.2288z" fill="#1296db" p-id="3203"></path><path d="M533.504 280.1664H245.5552v-64.3072h287.9488v64.3072z m-281.1904-6.7584h274.2272v-50.5856H252.3136v50.5856zM804.0448 883.3024H244.5312c-13.9264 0-24.9856-11.264-24.9856-24.9856V495.0016h-104.448v-67.9936h104.2432v-67.9936l33.9968-33.9968h314.368l261.3248 32.3584v69.4272h104.2432v67.9936h-104.2432V858.112c0 13.9264-11.264 25.1904-24.9856 25.1904z m-681.984-395.0592h104.2432v370.0736c0 10.0352 8.192 18.2272 18.2272 18.2272h559.5136c10.0352 0 18.2272-8.192 18.2272-18.2272V488.2432h104.2432v-54.272h-104.2432v-70.2464L567.296 331.9808H256.2048l-29.9008 29.9008v71.8848H122.0608v54.4768z" fill="#1296db" p-id="3204"></path><path d="M476.9792 222.6176h-171.008v-61.44h171.008v61.44z m-164.2496-6.7584h157.2864V167.936h-157.2864v47.9232zM476.9792 332.1856h-171.008v-58.7776h171.008v58.7776z m-164.2496-6.7584h157.2864v-45.2608h-157.2864v45.2608z" fill="#1296db" p-id="3205"></path></svg>