<?xml version="1.0" standalone="no"?><!DOCTYPE svg PUBLIC "-//W3C//DTD SVG 1.1//EN" "http://www.w3.org/Graphics/SVG/1.1/DTD/svg11.dtd"><svg t="1717261642743" class="icon" viewBox="0 0 1024 1024" version="1.1" xmlns="http://www.w3.org/2000/svg" p-id="8544" xmlns:xlink="http://www.w3.org/1999/xlink" width="200" height="200"><path d="M306.951079 402.319052c-32.048617 18.046794-42.005469 50.095412-44.027955 72.187177-4.044971 52.273473 24.114251 114.348222 70.164691 152.308721 22.091765 18.046794 48.072926 28.159222 74.054087 28.159222 36.093589 0 72.187177-18.046794 100.190824-50.095412 10.112428-11.979338 16.024309-36.093589 19.913704-62.074749 2.022486 10.112428 4.044971 22.091765 4.044971 32.048617 4.044971 36.093589 7.934366 72.187177 30.026132 84.166515 14.001823 7.934366 28.159222 11.979338 42.005469 11.979338 14.624126 0 28.937101-3.422668 42.00547-10.112428 48.072926-22.091765 88.211486-78.099058 96.145852-136.284412 11.979338-67.98663-34.071103-128.350046-106.25828-138.151322h-6.067457c-14.001823 0-32.048617 4.044971-50.095412 11.979338 4.044971-4.044971 7.934366-6.067457 11.979338-10.112428 28.159222-22.091765 58.185354-44.027955 58.185354-67.98663 0-37.960498-22.091765-60.052264-40.13856-74.054087-25.981161-18.046794-62.074749-28.159222-98.168338-28.159222-23.180796 0-46.361592 4.044971-67.98663 11.979337-66.11972 24.114251-94.123367 92.100881-66.11972 162.265573 4.978426 10.423579 11.823762 19.913704 19.913704 28.159222-24.114251-10.112428-48.072926-19.913704-67.986631-19.913704-9.6457-2.333637-15.713157-0.155576-21.780613 1.711334z m326.242479 64.252811h4.511699c15.402005 2.178061 26.292312 8.712246 32.982072 19.758128 6.68976 8.712246 8.867821 19.758128 6.68976 32.982072-6.68976 35.160134-30.959587 70.475843-52.895776 81.36615-1.711334-7.312063-2.489213-14.624126-2.178062-22.091765-2.178061-15.402005-4.511699-35.160134-8.867821-52.895776 10.890307-21.780614 17.580067-39.360681 19.758128-59.118809z m-99.879672 9.956852c-4.044971 7.934366-11.979338 16.179885-18.046794 22.091765 0 2.022486 1.86691 4.044971 1.86691 6.067457-16.491036-8.089942-30.337284-20.536007-40.13856-36.093589-4.200547-8.245518-7.623215-16.957764-10.112428-25.981161 12.446065-6.378608 26.136737-9.801276 40.13856-10.112427 10.112428 0 18.046794 2.022486 28.159222 4.044971 4.044971-4.044971 6.067457-7.934366 10.112428-14.001823 0.155576 19.913704-1.86691 37.960498-11.979338 53.984807z m-91.634153-163.976907c4.511699-10.890307 13.223944-17.580067 24.269826-22.091765 14.157399-4.511699 29.092677-6.845336 44.027955-6.68976 22.091765 0 41.849894 4.511699 55.073838 13.223944-6.68976 4.511699-13.223944 10.890307-17.580067 13.223944-13.223944 8.867821-28.62595 19.758128-41.849893 32.982072-19.602552 0.311152-38.893953 4.044971-57.251899 10.890307-2.178061-2.178061-2.178061-2.178061-2.178062-4.511699-8.867821-12.757217-8.867821-25.981161-4.511698-37.027043z m-92.412033 184.979641c15.402005 6.68976 32.982072 13.223944 50.562139 19.758129 10.890307 17.580067 22.091765 32.982072 37.493771 46.206016 0 2.178061 0 2.178061-2.178062 4.511699-10.890307 13.223944-24.269827 19.758128-37.49377 19.758128-8.712246 0-17.580067-4.511699-26.292313-10.890307-28.62595-24.269827-43.872379-61.608022-43.872379-88.05591 8.55667 2.178061 15.24643 6.378608 21.780614 8.712245z" fill="#0092D8" p-id="8545"></path><path d="M578.275296 853.800061v56.162868h-126.483136v-55.073838c-28.62595-4.200547-56.47402-11.201459-83.233059-21.002734v76.232148h-42.316622c-23.336372-0.466727-42.472197 18.046794-42.938924 41.383166s18.046794 42.472197 41.383166 42.938925h380.694014c23.336372-0.466727 41.849894-19.602552 41.383167-42.938925-0.466727-22.714069-18.669098-40.916439-41.383167-41.383166h-42.005469v-79.188089c-27.225767 10.423579-55.696141 18.20237-85.09997 22.869645z" fill="#0092D8" p-id="8546"></path><path d="M512 859.089638c22.402917 0 44.650258-1.86691 66.275296-5.289577 29.248253-4.667274 57.718627-12.446065 85.09997-23.180796 52.429049-20.536007 100.657551-51.962321 141.729565-93.034336 78.254634-78.254634 121.50471-182.490428 121.50471-293.104832s-43.0945-214.850198-121.50471-293.104831C726.850198 73.120632 622.614403 29.870556 512 29.870556s-214.850198 43.0945-293.104831 121.349134C140.484959 229.6299 97.390459 333.710119 97.390459 444.480097s43.0945 214.850198 121.50471 293.104832c43.0945 43.0945 94.123367 75.609845 149.819507 95.990276 26.75904 9.801276 54.60711 16.957764 83.23306 21.002735 19.602552 2.95594 39.671832 4.511699 60.052264 4.511698zM159.620784 444.480097C159.620784 250.165907 317.68581 92.100881 512 92.100881S864.379216 250.165907 864.379216 444.480097 706.31419 796.859313 512 796.859313 159.620784 638.794287 159.620784 444.480097z" fill="#0092D8" p-id="8547"></path></svg>