<?xml version="1.0" standalone="no"?><!DOCTYPE svg PUBLIC "-//W3C//DTD SVG 1.1//EN" "http://www.w3.org/Graphics/SVG/1.1/DTD/svg11.dtd"><svg t="1718357242027" class="icon" viewBox="0 0 1024 1024" version="1.1" xmlns="http://www.w3.org/2000/svg" p-id="2612" xmlns:xlink="http://www.w3.org/1999/xlink" width="200" height="200"><path d="M150.0179 874.000105a508.444007 508.444007 0 0 1-149.999895-361.901077A508.534032 508.534032 0 0 1 150.0179 150.071915 508.516027 508.516027 0 0 1 512.027008 0.07202a508.516027 508.516027 0 0 1 362.027113 149.999895 508.534032 508.534032 0 0 1 149.999894 362.027113 508.444007 508.444007 0 0 1-149.999894 361.901077 508.389992 508.389992 0 0 1-362.027113 149.999895 508.371987 508.371987 0 0 1-362.009108-149.999895z m362.009108 64.674064a427.133297 427.133297 0 0 0 426.719181-426.719182 427.169307 427.169307 0 0 0-426.719181-426.719181 427.403372 427.403372 0 0 0-418.076768 341.339335h184.245459a206.859775 206.859775 0 0 1 1.800503-44.886537c5.131433-5.131433 10.478927-8.624409 121.281874-8.624408l131.43671-147.857296 0.10803-0.144041a12.42347 12.42347 0 0 1 10.154836-5.275473 12.74756 12.74756 0 0 1 7.202011 2.196613l0.288081 0.216061 0.25207 0.14404c7.202011 3.15088 9.830746 8.534384 9.830746 19.931567v542.04139c0 11.397183-2.664744 16.834702-9.830746 19.949572l-1.026286 0.432121-0.774217 1.062297c-1.800503 2.268634-3.2229 2.340654-6.33777 2.340653a20.273662 20.273662 0 0 1-9.722715-6.787896l-0.14404-0.25207-131.43671-143.536089h-105.707524a17.896999 17.896999 0 0 1-12.945616-6.823906 31.562815 31.562815 0 0 1-5.167443-17.122782v-36.370158H93.932235a427.349357 427.349357 0 0 0 418.094773 341.46537z m174.450723-200.1439a32.409052 32.409052 0 0 1 4.501257-34.83973 47.641306 47.641306 0 0 0 11.595239-11.775289 187.810455 187.810455 0 0 0 20.669773-34.497635 336.694038 336.694038 0 0 0 28.808046-144.166266 321.875899 321.875899 0 0 0-30.392489-144.310305 183.327203 183.327203 0 0 0-21.822095-34.47963 54.321172 54.321172 0 0 0-11.991349-11.685264 33.957484 33.957484 0 0 1-5.059413-33.579378 24.036713 24.036713 0 0 1 17.572908-10.803017 12.78357 12.78357 0 0 1 8.426354 3.18689c0.396111 0.450126 0.918256 0.954267 1.800503 1.800502a245.300512 245.300512 0 0 1 43.212069 63.503737 381.058428 381.058428 0 0 1 34.497635 166.384471 394.922301 394.922301 0 0 1-33.327309 166.978636 240.277109 240.277109 0 0 1-41.411566 63.017601c-0.990277 1.062297-1.494417 1.602448-1.908533 2.124593-1.944543 2.574719-7.580117 2.574719-9.758725 2.574719a17.698943 17.698943 0 0 1-15.412305-9.434635z m-68.239059-98.919628l-0.10803-0.39611-0.14404-0.288081a27.835774 27.835774 0 0 1 8.246303-29.996378c3.601006-2.574719 34.767711-26.791483 34.76771-99.909904a137.8465 137.8465 0 0 0-18.959295-73.262462 84.35356 84.35356 0 0 0-19.211366-22.470276l-0.32409-0.270076-0.396111-0.14404a19.157351 19.157351 0 0 1-8.174283-12.60352 24.77492 24.77492 0 0 1 0.810227-16.762682l0.32409-0.666186 0.18005-0.774216a17.428868 17.428868 0 0 1 15.592355-12.171399 9.974786 9.974786 0 0 1 6.679866 2.412673l1.170327 1.062297h0.882246a100.28801 100.28801 0 0 1 30.500519 31.634836 178.717915 178.717915 0 0 1 27.169588 99.837884 219.949431 219.949431 0 0 1-25.657166 111.091027 94.274331 94.274331 0 0 1-28.808046 33.291299h-1.350377l-1.350377 1.800502c-1.800503 2.232624-3.276915 2.412674-6.4458 2.412674-4.753328 0-12.927611-7.346052-15.3943-13.827862z" fill="#1296db" p-id="2613"></path></svg>