<?xml version="1.0" standalone="no"?><!DOCTYPE svg PUBLIC "-//W3C//DTD SVG 1.1//EN" "http://www.w3.org/Graphics/SVG/1.1/DTD/svg11.dtd"><svg t="1717593236420" class="icon" viewBox="0 0 1024 1024" version="1.1" xmlns="http://www.w3.org/2000/svg" p-id="2815" xmlns:xlink="http://www.w3.org/1999/xlink" width="200" height="200"><path d="M736 352h-448v448h448v-448z m-64 384h-320v-320h320v320z m-576-704v960h832V32h-832z m768 320h-64v64h64v64h-64v64h64v64h-64v64h64v64h-64v64h64v128h-128v-64h-64v64h-64v-64h-64v64h-64v-64h-64v64h-64v-64h-64v64h-128v-128h64v-64h-64v-64h64v-64h-64v-64h64v-64h-64v-64h64v-64h-64v-256h704v256z" fill="#B5B5B5" p-id="2816"></path></svg>