<?xml version="1.0" standalone="no"?><!DOCTYPE svg PUBLIC "-//W3C//DTD SVG 1.1//EN" "http://www.w3.org/Graphics/SVG/1.1/DTD/svg11.dtd"><svg t="1719329128817" class="icon" viewBox="0 0 1024 1024" version="1.1" xmlns="http://www.w3.org/2000/svg" p-id="14343" data-spm-anchor-id="a313x.search_index.0.i26.c5ee3a81gcvSXj" xmlns:xlink="http://www.w3.org/1999/xlink" width="200" height="200"><path d="M441.224533 857.710933h142.8992l38.749867-140.526933a250.222933 250.222933 0 0 1 77.832533-123.153067 289.570133 289.570133 0 0 0-183.9104-508.637866 286.062933 286.062933 0 0 0-115.319466 21.777066 292.462933 292.462933 0 0 0-157.602134 157.2352 286.3104 286.3104 0 0 0-21.956266 115.2768A289.723733 289.723733 0 0 0 323.157333 594.824533a249.198933 249.198933 0 0 1 77.4912 121.1648l40.567467 141.7216z" fill="#e6e6e6" p-id="14344" data-spm-anchor-id="a313x.search_index.0.i27.c5ee3a81gcvSXj" class=""></path><path d="M592.648533 406.272h-56.277333L580.266667 323.857067c5.393067-10.112-1.937067-22.331733-13.405867-22.331734H478.378667c-6.229333 0-11.8784 3.882667-14.148267 9.693867L414.353067 440.149333c-3.874133 9.941333 3.541333 20.650667 14.148266 20.650667h45.824l-32.580266 101.2736c-5.572267 17.194667 16.085333 29.917867 28.381866 16.682667l134.826667-144.085334c10.112-10.7776 2.440533-28.3904-12.305067-28.3904" fill="#0098FF" p-id="14345"></path><path d="M439.9616 900.608h142.933333V878.933333h-142.933333zM439.9616 938.666667h142.933333v-21.674667h-142.933333z" fill="#63CDFF" p-id="14346"></path><path d="M401.390933 859.477333h218.8032V743.509333H401.390933z" fill="#0098FF" p-id="14347"></path></svg>