<?xml version="1.0" standalone="no"?><!DOCTYPE svg PUBLIC "-//W3C//DTD SVG 1.1//EN" "http://www.w3.org/Graphics/SVG/1.1/DTD/svg11.dtd"><svg t="1717301217350" class="icon" viewBox="0 0 1024 1024" version="1.1" xmlns="http://www.w3.org/2000/svg" p-id="6499" xmlns:xlink="http://www.w3.org/1999/xlink" width="200" height="200"><path d="M545.28 640a32 32 0 0 1-32-32 32 32 0 0 1 32-32 32.64 32.64 0 0 0 32-32v-320a32 32 0 0 0-32-32h-320a32 32 0 0 0-32 32v320a32 32 0 0 0 32 32H320a32 32 0 0 1 32 32 32.64 32.64 0 0 1-32 32H225.28A96 96 0 0 1 128 545.28v-320A96 96 0 0 1 225.28 128h320A96 96 0 0 1 640 225.28v320A96 96 0 0 1 545.28 640z" fill="#565656" p-id="6500"></path><path d="M801.28 896h-320A96 96 0 0 1 384 801.28v-320A96 96 0 0 1 481.28 384a32 32 0 0 1 32 32 32.64 32.64 0 0 1-32 32 32 32 0 0 0-32 32v320a32 32 0 0 0 32 32h320a32.64 32.64 0 0 0 32-32v-320a32 32 0 0 0-32-32H704a32 32 0 0 1-32-32 32 32 0 0 1 32-32h96A96 96 0 0 1 896 481.28v320A96 96 0 0 1 801.28 896z" fill="#565656" p-id="6501"></path></svg>