<?xml version="1.0" standalone="no"?><!DOCTYPE svg PUBLIC "-//W3C//DTD SVG 1.1//EN" "http://www.w3.org/Graphics/SVG/1.1/DTD/svg11.dtd"><svg t="1719324434522" class="icon" viewBox="0 0 1325 1024" version="1.1" xmlns="http://www.w3.org/2000/svg" p-id="2647" xmlns:xlink="http://www.w3.org/1999/xlink" width="258.7890625" height="200"><path d="M62.695276 429.663843a61.521137 61.521137 0 0 1-37.111494-12.260047 62.625646 62.625646 0 0 1-13.254105-87.697994 808.279501 808.279501 0 0 1 1300.779951-2.319469 62.736097 62.736097 0 0 1-100.731197 74.775242 677.616116 677.616116 0 0 0-548.940848-276.127186 686.231285 686.231285 0 0 0-550.155807 278.115302 62.294293 62.294293 0 0 1-50.5865 25.735054z m751.065948 594.225706a62.404744 62.404744 0 0 1-44.18035-18.334845l-297.112853-297.112853a62.736097 62.736097 0 0 1 88.3607-88.3607l297.112853 297.112853a62.956999 62.956999 0 0 1 0 88.3607 61.631588 61.631588 0 0 1-44.401252 18.334845z" fill="#1296db" fill-opacity="0.65" p-id="2648"></path><path d="M515.875215 1023.889549a62.625646 62.625646 0 0 1-44.18035-107.026897L768.365914 620.191602a62.736097 62.736097 0 0 1 88.3607 88.3607L559.834663 1005.223351a61.410686 61.410686 0 0 1-43.959448 18.666198zM278.847638 577.778466a62.515195 62.515195 0 0 1-49.923796-100.510296 554.132038 554.132038 0 0 1 189.644152-157.8343 550.708061 550.708061 0 0 1 496.25578 0 553.248431 553.248431 0 0 1 189.42325 157.8343 62.625646 62.625646 0 0 1-99.405787 75.879751 424.573162 424.573162 0 0 0-675.959353 0 62.625646 62.625646 0 0 1-49.481992 24.630545z" fill="#1296db" fill-opacity="0.65" p-id="2649"></path></svg>