<?xml version="1.0" standalone="no"?><!DOCTYPE svg PUBLIC "-//W3C//DTD SVG 1.1//EN" "http://www.w3.org/Graphics/SVG/1.1/DTD/svg11.dtd"><svg t="1718357404153" class="icon" viewBox="0 0 1024 1024" version="1.1" xmlns="http://www.w3.org/2000/svg" p-id="3715" xmlns:xlink="http://www.w3.org/1999/xlink" width="200" height="200"><path d="M323.86877 853.333333m37.790476 0l21.942857 0q37.790476 0 37.790476 37.790477l0 70.704761q0 37.790476-37.790476 37.790477l-21.942857 0q-37.790476 0-37.790476-37.790477l0-70.704761q0-37.790476 37.790476-37.790477Z" fill="#BCBCBC" p-id="3716"></path><path d="M250.725912 999.619048a121.904762 24.380952 0 1 0 243.809524 0 121.904762 24.380952 0 1 0-243.809524 0Z" fill="#BCBCBC" p-id="3717"></path><path d="M250.725912 853.333333a24.380952 24.380952 0 0 0 24.380953 24.380953h195.047619a24.380952 24.380952 0 0 0 24.380952-24.380953V585.142857H250.725912zM470.154484 0H275.106865a24.380952 24.380952 0 0 0-24.380953 24.380952v268.190477h243.809524V24.380952a24.380952 24.380952 0 0 0-24.380952-24.380952zM250.725912 316.952381h243.809524v243.809524H250.725912z" fill="#BCBCBC" p-id="3718"></path><path d="M250.725912 48.761905m12.190477 0l219.428571 0q12.190476 0 12.190476 12.190476l0 219.428571q0 12.190476-12.190476 12.190477l-219.428571 0q-12.190476 0-12.190477-12.190477l0-219.428571q0-12.190476 12.190477-12.190476Z" fill="#00BA4E" p-id="3719"></path><path d="M250.725912 316.952381m12.190477 0l219.428571 0q12.190476 0 12.190476 12.190476l0 219.428572q0 12.190476-12.190476 12.190476l-219.428571 0q-12.190476 0-12.190477-12.190476l0-219.428572q0-12.190476 12.190477-12.190476Z" fill="#FFE202" p-id="3720"></path><path d="M250.725912 585.142857m12.190477 0l219.428571 0q12.190476 0 12.190476 12.190476l0 219.428572q0 12.190476-12.190476 12.190476l-219.428571 0q-12.190476 0-12.190477-12.190476l0-219.428572q0-12.190476 12.190477-12.190476Z" fill="#FF2929" p-id="3721"></path></svg>