<?xml version="1.0" standalone="no"?><!DOCTYPE svg PUBLIC "-//W3C//DTD SVG 1.1//EN" "http://www.w3.org/Graphics/SVG/1.1/DTD/svg11.dtd"><svg t="1717262969763" class="icon" viewBox="0 0 1024 1024" version="1.1" xmlns="http://www.w3.org/2000/svg" p-id="9556" xmlns:xlink="http://www.w3.org/1999/xlink" width="200" height="200"><path d="M737.28 506.42944c68.28032 109.24032 102.4 183.13216 102.4 221.67552 0 58.5728-45.8752 106.00448-102.4 106.00448S634.88 786.67776 634.88 728.10496c0-38.5024 34.11968-112.4352 102.4-221.67552z m45.75232-312.60672a102.4 102.4 0 0 1 0 144.83456L471.04 650.69056a143.36 143.36 0 1 1-143.36-144.26112l-2.12992 0.04096 312.68864-312.64768a102.4 102.4 0 0 1 144.7936 0zM737.28 634.88c-13.63968 42.76224-20.48 62.42304-20.48 76.75904 0 21.504 9.17504 38.912 20.48 38.912s20.48-17.408 20.48-38.912c0-14.336-6.84032-33.9968-20.48-76.75904z m-10.32192-383.71328a20.48 20.48 0 0 0-28.95872 0l-343.40864 343.36768a61.44 61.44 0 1 0 28.75392 29.20448l343.61344-343.6544a20.48 20.48 0 0 0 0-28.91776z" fill="#4ad3fe" p-id="9557"></path></svg>